HIERARCHY
ROOT Hips
{
  OFFSET 43.0842 91.1655 101.099
  CHANNELS 6 Xposition Yposition Zposition Zrotation Xrotation Yrotation
  JOINT LeftUpLeg
  {
    OFFSET 8.64259 1.95398 -2.38835
    CHANNELS 3 Zrotation Xrotation Yrotation
    JOINT LeftLeg
    {
      OFFSET 43.7702 0 0
      CHANNELS 3 Zrotation Xrotation Yrotation
      JOINT LeftFoot
      {
        OFFSET 40.6238 0 0
        CHANNELS 3 Zrotation Xrotation Yrotation
        JOINT LeftToeBase
        {
          OFFSET 12.7242 0 0
          CHANNELS 3 Zrotation Xrotation Yrotation
          End Site
          {
            OFFSET 0 0 0
          }
        }
      }
    }
  }
  JOINT RightUpLeg
  {
    OFFSET -8.2249 1.95398 -2.59336
    CHANNELS 3 Zrotation Xrotation Yrotation
    JOINT RightLeg
    {
      OFFSET 43.5653 0 0
      CHANNELS 3 Zrotation Xrotation Yrotation
      JOINT RightFoot
      {
        OFFSET 40.6238 0 0
        CHANNELS 3 Zrotation Xrotation Yrotation
        JOINT RightToeBase
        {
          OFFSET 12.7242 0 0
          CHANNELS 3 Zrotation Xrotation Yrotation
          End Site
          {
            OFFSET 0 0 0
          }
        }
      }
    }
  }
  JOINT Spine
  {
    OFFSET 0.165834 0.87714 6.61349
    CHANNELS 3 Zrotation Xrotation Yrotation
    JOINT Spine1
    {
      OFFSET 7.38963 1.71661e-005 0
      CHANNELS 3 Zrotation Xrotation Yrotation
      JOINT Spine2
      {
        OFFSET 11.9445 1.14441e-005 0
        CHANNELS 3 Zrotation Xrotation Yrotation
        JOINT Spine3
        {
          OFFSET 14.7254 4.19617e-005 0
          CHANNELS 3 Zrotation Xrotation Yrotation
          JOINT Spine4
          {
            OFFSET 10.9679 0 0
            CHANNELS 3 Zrotation Xrotation Yrotation
            JOINT RightShoulder
            {
              OFFSET 2.46616 -1.6653 3.69651
              CHANNELS 3 Zrotation Xrotation Yrotation
              JOINT RightArm
              {
                OFFSET 13.0012 0 0
                CHANNELS 3 Zrotation Xrotation Yrotation
                JOINT RightForeArm
                {
                  OFFSET 28.7848 1.52588e-005 0
                  CHANNELS 3 Zrotation Xrotation Yrotation
                  JOINT RightHand
                  {
                    OFFSET 26.5688 1.52588e-005 0
                    CHANNELS 3 Zrotation Xrotation Yrotation
                    End Site
                    {
                      OFFSET 0 0 0
                    }
                  }
                }
              }
            }
            JOINT LeftShoulder
            {
              OFFSET 2.38034 -1.29275 -3.7523
              CHANNELS 3 Zrotation Xrotation Yrotation
              JOINT LeftArm
              {
                OFFSET 16.3182 6.10351e-005 0
                CHANNELS 3 Zrotation Xrotation Yrotation
                JOINT LeftForeArm
                {
                  OFFSET 27.0901 0 0
                  CHANNELS 3 Zrotation Xrotation Yrotation
                  JOINT LeftHand
                  {
                    OFFSET 24.5451 1.52588e-005 0
                    CHANNELS 3 Zrotation Xrotation Yrotation
                    End Site
                    {
                      OFFSET 0 0 0
                    }
                  }
                }
              }
            }
            JOINT Neck
            {
              OFFSET 5.0226 -0.0266342 0
              CHANNELS 3 Zrotation Xrotation Yrotation
              JOINT Head
              {
                OFFSET 6.69364 2.86102e-005 0
                CHANNELS 3 Zrotation Xrotation Yrotation
                End Site
                {
                  OFFSET 0 0 0
                }
              }
            }
          }
        }
      }
    }
  }
}
MOTION
Frames:	18
Frame Time:	0.0333333
-5.99446 84.8349 128.196 -68.0458 -57.8897 -73.4226 -169.827 -6.25066 92.8631 -29.0005 12.6461 -3.33466 62.3893 2.34861 4.59923 42.0094 10.1665 15.8976 -169.489 42.813 90.7229 -51.9925 -5.32403 -6.73957 79.8664 -15.4176 9.8477 37.1236 -6.47963 7.41643 -2.13654 7.57329 -91.1228 11.695 -4.77616 -1.73816 0.0319312 -4.84802 -1.52587 -22.5476 -4.03292 -3.09473 -2.53491 -4.03291 -3.09473 100.186 -39.0832 -85.578 26.8986 4.53226 -39.6959 5.73749 -13.9217 -137.059 -0.754135 1.45895 4.07327 -88.152 -39.8322 79.4087 -7.79746 -37.9904 -26.333 -12.6752 23.7865 -128.143 -4.46612 -2.59181 5.80872 -25.7866 0.543724 3.28883 8.75227 2.63889 15.7123 
-6.31247 85.0615 127.611 -65.7195 -63.7242 -71.5028 -169.872 -5.3436 94.0385 -29.2728 12.4513 -2.70344 61.9431 1.36827 5.20577 42.3716 11.5968 13.8275 -171.326 41.0831 89.6256 -51.0074 -4.59192 -6.29302 79.9316 -15.8344 7.69496 37.657 -6.78171 7.67286 -1.95425 7.55712 -91.111 11.7289 -4.40812 -1.75118 0.0644707 -4.48091 -1.55517 -22.5061 -3.67805 -2.99607 -2.49344 -3.67805 -2.99607 100.316 -37.0804 -85.45 29.7316 9.78623 -44.1196 2.79133 -13.9641 -136.178 -0.800751 1.61814 5.38301 -88.0624 -39.2935 79.4374 -11.8921 -41.0737 -32.3813 -12.9377 26.3449 -126.913 -3.95239 -2.4917 5.82971 -26.9916 -1.04817 3.25108 9.34968 0.863895 13.4443 
-6.59228 85.4124 126.976 -62.6588 -70.1115 -68.9138 -169.938 -4.60921 94.9568 -29.278 11.3666 -2.22016 62.3507 1.55816 4.46436 41.7444 10.3043 14.6554 -173.493 38.9309 88.4441 -49.954 -4.49901 -5.75781 79.0846 -15.6698 4.42596 38.6263 -7.20741 7.63551 -1.83633 7.5599 -90.9924 11.7295 -4.11802 -1.54507 0.0643367 -4.18202 -1.36208 -22.5031 -3.46327 -2.71219 -2.49044 -3.46327 -2.71219 99.9486 -36.4868 -86.1656 30.7387 11.4568 -46.9433 1.37756 -13.2325 -135.363 -1.53634 1.43985 5.8361 -87.7516 -38.2601 79.7307 -17.6634 -40.3882 -40.1897 -10.773 26.1276 -125.293 -1.90843 -2.00536 5.52773 -29.0195 -2.10082 2.4519 10.4014 -0.441864 10.9072 
-6.90688 85.7607 126.227 -55.7988 -76.1059 -62.4714 -169.734 -3.25956 95.8707 -29.2517 9.22393 -2.1748 62.9613 1.99878 3.18262 40.806 8.5083 15.4092 -175.507 37.1601 87.3788 -48.9012 -3.68748 -5.18214 78.6926 -15.7684 2.34992 38.1282 -6.77341 6.72688 -1.68277 7.5514 -90.8728 11.7514 -3.75657 -1.34371 0.0854081 -3.81207 -1.17688 -22.4775 -3.17904 -2.41134 -2.46485 -3.17903 -2.41134 99.5284 -35.5331 -87.0153 33.066 15.0316 -49.5248 0.123356 -13.8652 -134.586 -1.53938 1.46889 6.07395 -87.8162 -37.5198 79.4489 -22.8021 -39.8272 -46.0044 -8.06055 26.9456 -123.813 0.373744 -1.49344 5.27133 -30.3963 -2.693 0.0736141 11.291 -1.27517 10.6645 
-7.15471 86.1118 125.373 -39.1249 -81.5129 -46.2284 -169.602 -1.91032 96.5438 -28.554 9.03961 -2.34783 63.4103 2.78319 4.28002 39.7939 6.89058 15.4593 -177.622 35.7285 86.3612 -47.925 -1.9188 -4.52617 78.1241 -15.3627 1.60264 37.8964 -6.28891 5.14942 -1.56199 7.50949 -90.8581 11.8363 -3.50972 -1.33681 0.169614 -3.56513 -1.18089 -22.3887 -2.94569 -2.33039 -2.37608 -2.94568 -2.33038 99.5521 -32.7945 -87.1969 36.3617 17.9457 -51.9213 -1.77781 -14.1166 -133.771 -1.33309 1.54533 6.14235 -88.764 -39.174 78.2148 -23.8154 -38.2682 -49.7904 -7.29005 27.1888 -122.217 0.328497 -1.4668 5.09172 -32.1286 -3.93056 0.524453 12.1161 -2.77028 8.10672 
-7.46648 86.4765 124.528 3.14366 -84.3821 -4.00063 -169.637 -0.51801 97.2098 -27.3045 8.4557 -2.47338 63.4069 2.50736 6.57446 38.8413 6.15755 13.9953 -179.901 34.6422 85.6748 -46.9497 -1.36335 -3.52731 77.1689 -14.8196 -0.220234 37.4932 -6.1417 5.33325 -1.46579 7.48727 -90.8369 11.8826 -3.3087 -1.3145 0.215406 -3.36334 -1.16747 -22.3397 -2.76068 -2.24856 -2.32705 -2.76068 -2.24857 99.0478 -31.2613 -88.3315 38.4383 20.8186 -53.9709 -2.79544 -14.665 -132.921 -1.77721 1.41021 6.22838 -89.2122 -39.8941 77.635 -25.2325 -36.645 -52.8503 -7.6258 27.5027 -120.256 -0.2074 -1.48046 4.63571 -32.907 -4.64302 0.225502 12.4684 -3.7952 6.28773 
-7.66486 86.9683 123.673 49.6194 -82.807 42.5207 -169.876 1.12438 97.7914 -26.6379 7.79237 -2.68701 63.4456 2.14773 7.06194 38.1427 4.91715 14.2668 177.831 33.3445 84.956 -45.5263 -1.1264 -2.45797 76.2842 -14.2963 -1.6988 36.6915 -5.71645 5.16268 -1.30989 7.48361 -90.686 11.8944 -2.92762 -1.05366 0.2264 -2.97115 -0.923696 -22.3255 -2.47559 -1.88516 -2.31286 -2.47559 -1.88517 99.0002 -31.5692 -88.3987 39.7634 23.1729 -55.7962 -3.92257 -14.7573 -132.822 -1.75687 1.51298 6.99745 -88.6531 -38.4119 78.2161 -29.4047 -33.9846 -57.5652 -6.80928 29.1459 -118.208 -0.627292 -1.53939 4.54754 -33.9048 -4.71199 -2.44633 12.8529 -4.36999 5.70569 
-7.75689 87.4678 122.823 69.8197 -79.3534 62.9361 -169.827 2.46014 98.2822 -26.2515 6.97946 -2.84531 63.5031 2.02277 6.62552 37.6625 4.10739 14.3513 175.579 31.8808 84.3788 -43.8275 -0.824805 -1.27288 75.3498 -13.6289 -2.89467 36.025 -5.34927 4.98287 -1.15636 7.51474 -90.6661 11.8334 -2.6128 -1.04987 0.164799 -2.65647 -0.933796 -22.3827 -2.17649 -1.78679 -2.37002 -2.17649 -1.7868 98.8576 -30.7451 -88.7722 40.7275 24.8981 -56.9022 -5.91791 -13.5566 -132.946 -1.91993 1.41409 6.64277 -88.8151 -38.8801 78.0551 -31.7553 -33.2013 -60.028 -4.89513 30.029 -117.213 -1.95662 -1.46057 3.00518 -34.8023 -5.33382 -2.95318 13.3354 -5.37389 3.94312 
-7.72375 88.0388 121.938 79.2151 -75.3066 72.6452 -170.01 3.60613 98.4528 -25.6298 6.92871 -2.76511 63.2551 1.83663 7.23178 37.3116 4.13121 13.3536 173.338 30.3965 83.7358 -41.9376 0.29665 0.00442033 74.3276 -12.6485 -2.99443 35.6856 -5.06009 4.51518 -1.06335 7.5245 -90.6425 11.8148 -2.4167 -1.02413 0.145741 -2.45943 -0.916732 -22.3994 -1.9972 -1.70325 -2.3868 -1.99719 -1.70324 98.7001 -30.4273 -89.1278 41.9223 27.2294 -58.2248 -6.27392 -13.8724 -132.732 -1.8777 1.36929 6.16567 -88.9323 -38.9552 77.8753 -31.9203 -30.7879 -60.8545 -3.84699 29.0846 -116.62 -1.97451 -1.37934 2.62597 -35.7528 -5.85492 -3.78112 13.5485 -6.31812 2.47125 
-7.56794 88.5481 120.979 83.8769 -71.4492 77.9323 -170.218 4.81974 98.7682 -25.3284 7.7806 -2.59881 62.7406 1.52209 8.02855 37.4721 5.22587 11.8171 171.631 28.8541 83.3208 -39.8801 0.723223 1.18024 73.2467 -11.4968 -3.82821 34.7563 -4.64037 4.64565 -0.981224 7.53834 -90.6146 11.7882 -2.24016 -0.987898 0.118845 -2.28146 -0.888316 -22.4245 -1.83972 -1.6156 -2.41186 -1.83971 -1.6156 98.0152 -30.9683 -90.4445 43.4983 31.2945 -59.7492 -6.78837 -15.5163 -132.66 -2.13338 1.33746 6.59376 -88.8136 -37.8146 77.7804 -33.4023 -28.7941 -61.8533 -1.46467 28.8972 -116.25 -0.999513 -1.26168 2.87541 -36.6871 -5.84383 -5.92274 14.0283 -6.71595 2.65796 
-7.23918 89.1162 119.971 85.857 -68.3354 80.4327 -170.824 5.99012 98.6573 -25.158 8.9953 -2.4227 62.7887 1.63005 8.18012 36.2595 3.03473 12.4149 170.846 27.3584 82.872 -37.267 1.15139 1.83815 71.8242 -10.2039 -4.42979 33.9696 -4.28524 4.75676 -0.808749 7.55727 -90.5731 11.7516 -1.87762 -0.944595 0.081751 -1.91737 -0.861029 -22.4583 -1.50695 -1.46527 -2.44567 -1.50694 -1.46526 97.508 -31.72 -91.3588 44.7315 33.7302 -60.8086 -8.23397 -15.547 -133.539 -1.80078 1.54816 7.40812 -89.0023 -36.1031 77.0069 -36.1259 -27.7622 -63.7824 -1.87212 31.0572 -114.052 -0.517776 -1.20337 3.00311 -37.4547 -5.89271 -8.41679 14.3753 -7.29284 2.66244 
-6.8273 89.6442 118.847 87.5218 -65.3213 82.4617 -171.68 7.21599 98.4958 -25.0847 11.2493 -2.19538 62.5278 1.06255 9.9511 35.1007 2.08455 11.0292 170.257 25.9269 82.2301 -34.8359 1.1014 2.28219 70.3264 -8.83161 -5.279 33.2834 -3.84347 4.40657 -0.754925 7.60241 -90.5925 11.6612 -1.77936 -0.995066 -0.00886565 -1.82144 -0.915776 -22.5476 -1.39807 -1.48385 -2.53492 -1.39807 -1.48385 98.5861 -31.5291 -89.2306 45.1407 32.8804 -61.1827 -8.56195 -14.302 -134.523 -0.921067 1.77159 6.82213 -88.5877 -37.7833 78.1743 -32.1828 -23.9414 -62.5506 -2.11835 27.5588 -114.236 -0.306685 -1.07209 2.5472 -36.546 -6.40145 -7.84692 13.4102 -7.92192 0.984588 
-6.11538 89.9817 117.692 88.4986 -63.351 83.6874 -172.433 7.84606 97.9451 -25.2848 12.442 -1.76677 62.3825 0.977981 10.2789 34.9785 2.18806 10.5523 170.182 24.8893 81.5361 -32.8479 0.100428 2.36431 68.9341 -7.3315 -6.89935 32.2687 -3.13904 3.76292 -0.647708 7.64458 -90.5644 11.5778 -1.5527 -0.964478 -0.0925623 -1.59364 -0.895205 -22.6297 -1.19107 -1.38653 -2.61704 -1.19107 -1.38653 98.5934 -31.2333 -89.2508 46.6297 34.2244 -61.9587 -9.89494 -14.032 -135.058 -1.23024 1.77653 7.66282 -88.3893 -37.712 78.4979 -33.0926 -23.3204 -63.5909 -1.10919 27.9985 -113.67 -0.831082 -1.03502 1.92667 -36.6802 -6.55007 -8.63028 13.7427 -8.26312 0.788281 
-5.36111 90.1735 116.463 89.0985 -61.8566 84.578 -172.773 8.36509 97.5977 -25.3204 12.9242 -1.59081 62.4746 1.37771 10.4135 35.1592 3.37044 8.99847 170.469 24.161 80.9774 -31.2767 -0.213697 2.15632 67.6198 -5.90061 -7.66322 31.7013 -2.6236 3.04926 -0.545267 7.64961 -90.5578 11.5685 -1.34572 -0.972765 -0.10209 -1.38722 -0.912605 -22.6377 -0.991185 -1.33222 -2.62509 -0.991176 -1.33223 98.4284 -31.2501 -89.5787 46.9283 35.6508 -62.3374 -10.5237 -14.0083 -135.356 -1.68104 1.68288 8.14181 -88.6235 -38.1206 78.194 -32.1623 -21.839 -63.4832 -1.15963 26.9193 -112.858 -1.09079 -1.12031 2.13103 -37.1183 -6.62832 -8.59217 13.8632 -8.5404 -0.232612 
-4.48605 90.331 115.151 89.5119 -60.3727 85.2523 -172.899 8.94422 97.2037 -25.2743 13.3737 -1.64002 62.6353 2.08487 10.7228 35.2725 4.38714 7.46884 170.578 23.5774 80.2269 -29.6914 -0.288378 2.09961 66.216 -4.23331 -8.10125 31.2346 -2.17281 2.40785 -0.49093 7.66459 -90.4816 11.5399 -1.20196 -0.836074 -0.130749 -1.23758 -0.782375 -22.6665 -0.895128 -1.15865 -2.65387 -0.895124 -1.15866 98.1477 -32.6385 -89.9677 45.8948 36.8693 -61.766 -9.59574 -13.2441 -135.016 -1.02977 1.85309 7.71353 -88.3879 -37.4428 78.4344 -32.3729 -19.7998 -63.945 -1.26568 26.1022 -111.497 -1.76858 -1.09031 1.45592 -37.0252 -6.36784 -10.5872 13.7284 -8.4782 0.847587 
-3.42127 90.5824 113.76 90.1799 -59.0713 86.0402 -173.082 9.49352 96.5604 -25.6268 14.4741 -1.84571 62.6488 2.10799 11.2086 35.3289 4.86417 6.7383 170.647 22.7024 79.3535 -27.8413 -0.177057 1.87987 64.6019 -2.59329 -8.00487 30.4289 -1.50438 1.69373 -0.464597 7.7077 -90.4464 11.4543 -1.13286 -0.774221 -0.216362 -1.16582 -0.723614 -22.7521 -0.847805 -1.07889 -2.73949 -0.847807 -1.07889 98.135 -33.503 -89.8857 48.9266 39.3349 -63.4885 -9.99804 -15.5195 -135.666 -1.59901 1.68886 7.96597 -88.0013 -37.0107 79.0026 -32.5762 -17.0159 -64.2813 0.357062 24.3483 -111.361 -1.8665 -1.14392 1.63114 -36.7194 -6.33853 -11.8068 13.3632 -8.60656 1.14615 
-2.33813 90.8269 112.326 90.7255 -57.5035 86.5698 -173.512 10.2108 95.5786 -26.2949 15.5785 -1.91681 62.6363 2.04529 12.0835 35.2504 5.40172 5.51706 170.735 21.6675 78.3901 -25.6141 2.12192 1.44941 63.3735 -1.70013 -6.57319 29.3275 -0.502272 0.534711 -0.420197 7.71743 -90.4517 11.435 -1.04694 -0.793598 -0.235776 -1.08084 -0.746758 -22.771 -0.760048 -1.07155 -2.75835 -0.760042 -1.07155 98.2789 -33.4309 -89.6149 46.3936 39.9416 -59.6434 -10.6004 -12.2377 -136.512 -2.19654 1.55448 8.55463 -88.4167 -37.4665 78.3892 -34.5776 -16.2918 -65.2798 0.551038 26.3899 -110.933 -1.40868 -1.22521 2.36752 -36.7978 -6.75099 -12.1334 12.7466 -9.26914 0.0855457 
-1.23403 91.0494 111.012 91.6761 -56.0439 87.4029 -173.831 10.1836 94.6251 -26.3807 16.8525 -1.93791 62.6086 2.28856 12.8447 35.1398 5.57857 4.88988 170.714 20.7771 77.346 -24.2622 3.67823 1.0846 61.6151 -0.143535 -4.79863 29.4087 0.11681 -1.30995 -0.456188 7.77552 -90.4291 11.319 -1.10774 -0.743972 -0.351691 -1.1394 -0.694508 -22.8875 -0.832952 -1.0425 -2.87488 -0.832954 -1.0425 98.2436 -34.2059 -89.5935 45.6006 41.0788 -57.3384 -10.5103 -11.1973 -137.421 -2.15788 1.57959 8.65539 -88.4588 -37.7262 78.3807 -35.2099 -15.3812 -65.652 0.334747 27.4707 -110.271 -0.491672 -1.04546 2.25629 -36.5197 -6.99829 -11.7846 11.8785 -9.62498 -1.28355 
